# xmcd
#
# Track frame offsets: 
#        150
#        9293
#        24930
#        37988
#        48130
#        58728
#        68498
#        79020
#        89555
#        100448
#        111278
#        124650
#        133313
#        147325
#
# Disc length: 2129 seconds
#
# Revision: 2
# Processed by: cddbd v1.5.2PL0 Copyright (c) Steve Scherf et al.
# Submitted via: ExactAudioCopyFreeDBPlugin 1.0
#
DISCID=b6084f0e
DTITLE=Various Artist - Country Classics Disc 1
DYEAR=1900
DGENRE=Country
TTITLE0=Frankie Laine - Rawhide
TTITLE1=Billie Joe Spears - Blanket On The Ground
TTITLE2=Kenny Rogers and The First Edition - Ruby (Don't Take Your Love 
TTITLE2=To Town)
TTITLE3=Johnny Cash - Ballad of A Teenage Queen
TTITLE4=Freddy Fender - A Man Can Cry
TTITLE5=Willie Nelson - Let's Pretend
TTITLE6=Patsy Cline - I Can See An Angel
TTITLE7=Jimmie Rodgers - Kisses Sweeter Than Wine
TTITLE8=Dolly Parton - Honkey Tonk Angels
TTITLE9=Sammi Smith - Help Me Make It Through The Night
TTITLE10=Johnny Tillotson - I'm So Lonesome I Could Cry
TTITLE11=Buck Owens - After The Dance
TTITLE12=Charlie Rich - A Sunday Kind Of Woman
TTITLE13=Gene Autray - Goodnight Irene
EXTD=
EXTT0=
EXTT1=
EXTT2=
EXTT3=
EXTT4=
EXTT5=
EXTT6=
EXTT7=
EXTT8=
EXTT9=
EXTT10=
EXTT11=
EXTT12=
EXTT13=
PLAYORDER=
